<svg xmlns="http://www.w3.org/2000/svg" xmlns:xlink="http://www.w3.org/1999/xlink" version="1.1" x="0px" y="0px" viewBox="0 0 512 512" enable-background="new 0 0 512 512" xml:space="preserve"><g><path d="M426.656,197.433v42.672h-26.219l29.156-65.367c6.469-14.508,2.188-31.57-9.5-44.836l42.297-42.148   c4.172-4.164,4.188-10.914,0.016-15.086c-4.156-4.172-10.906-4.188-15.063-0.031l-34.063,33.938l21.344-47.852l-0.047-0.016   c0.141-0.25,0.266-0.508,0.391-0.773c2.406-5.375-0.016-11.68-5.406-14.078c-5.375-2.406-11.688,0.016-14.078,5.391   c-0.109,0.266-0.203,0.531-0.297,0.805l-0.063-0.016l-20.688,46.43l2.484-48.016c0.297-5.883-4.219-10.898-10.109-11.203   c-5.875-0.305-10.891,4.219-11.188,10.102l-3.188,61.039c0,0-0.031,0-0.047,0c-17.891,0-33.672,8.258-40.203,22.898l-48.531,108.82   h-13.391c-15.203-36.578-50.797-59.203-88.734-59.203c-4.938,0-9.922,0.383-14.906,1.172l-3.719-23.422   c-0.938-5.813-6.391-9.781-12.219-8.859c-5.813,0.93-9.781,6.398-8.844,12.211l4.094,25.758   c-24.922,9.906-43.531,29.203-53.172,52.344h-7.438v-42.672H0V474.77h512V197.433H426.656z M334.281,178.941l19.484,8.695   c5.375,2.398,11.688-0.023,14.078-5.398c2.406-5.383,0-11.688-5.391-14.086l-19.484-8.695l8.688-19.477   c2.828-6.328,10.766-10.258,20.734-10.258c5.672,0,11.609,1.32,17.188,3.805c8.484,3.781,15.422,10.008,19.078,17.078   c1.672,3.234,4.094,9.547,1.453,15.438l-26.016,58.336l-19.484-8.688l0,0c-5.391-2.398-11.688,0.016-14.078,5.398   c-2.406,5.375,0,11.688,5.391,14.086h-0.016l11.063,4.93H307L334.281,178.941z M156.563,206.542   c8.094-2.859,16.5-4.313,24.969-4.313c15.313,0,30.094,4.648,42.75,13.445c9.266,6.43,16.813,14.75,22.281,24.43H116.469   C125.344,224.425,139.406,212.605,156.563,206.542z M21.328,218.769H64v21.336H21.328V218.769z M490.656,453.441H21.328v-85.344   h469.328V453.441z M490.656,346.77H21.328v-85.336h469.328V346.77z M490.656,240.105H448v-21.336h42.656V240.105z"/><path d="M42.656,314.77c5.891,0,10.672-4.766,10.672-10.672c0-5.875-4.781-10.656-10.672-10.656S32,298.223,32,304.098   C32,310.004,36.766,314.77,42.656,314.77z"/><path d="M469.328,314.77c5.891,0,10.672-4.766,10.672-10.672c0-5.875-4.781-10.656-10.672-10.656s-10.672,4.781-10.672,10.656   C458.656,310.004,463.438,314.77,469.328,314.77z"/><path d="M42.656,421.441c5.891,0,10.672-4.781,10.672-10.672s-4.781-10.672-10.672-10.672S32,404.879,32,410.77   S36.766,421.441,42.656,421.441z"/><path d="M469.328,421.441c5.891,0,10.672-4.781,10.672-10.672s-4.781-10.672-10.672-10.672s-10.672,4.781-10.672,10.672   S463.438,421.441,469.328,421.441z"/></g></svg>
